<svg xmlns="http://www.w3.org/2000/svg" xmlns:xlink="http://www.w3.org/1999/xlink" xmlns:sketch="http://www.bohemiancoding.com/sketch/ns" width="34px" height="45px" viewBox="0 0 34 45" version="1.1">
    <title>unlock</title>
    <description>Created with Sketch (http://www.bohemiancoding.com/sketch)</description>
    <defs/>
    <g id="Page-1" stroke="none" stroke-width="1" fill="none" fill-rule="evenodd" sketch:type="MSPage">
        <path d="M0,42.9926701 C0,44.1012878 0.891941149,45 1.9999204,45 L32.0000796,45 C33.1046051,45 34,44.1016617 34,42.9926701 L34,20.0073299 C34,18.8987122 33.1061002,18 31.9951185,18 L29,18 L29,14 C29,14 30,-1.59999946e-06 18,0 C6,1.59999945e-06 6,9 6,9 L8,9 C8,9 8,1.99999332 18,2 C28,2.00000668 27,14 27,14 L27,20 L32,20 L32,43 L2,43 L2,20 L25,20 L25,18 L2.00359486,18 C0.897039974,18 0,18.8983383 0,20.0073299 L0,42.9926701 Z M0,42.9926701" id="unlock" fill="#000000" sketch:type="MSShapeGroup"/>
    </g>
</svg>