<svg width="100" height="135" xmlns="http://www.w3.org/2000/svg">
 <g>
  <title>Layer 1</title>
  <path fill-rule="evenodd" clip-rule="evenodd" d="m87.44091,32.06942c2.83206,-0.20351 5.28181,-0.61354 7.71681,-0.50651c3.80671,0.17185 5.42129,1.8165 5.20798,5.39072c-0.23793,3.99782 -1.03207,7.97 -1.26836,11.96782c-0.55132,9.22723 -0.90245,18.459 -1.3586,27.68774c-0.10829,2.17377 0.02954,4.41236 -0.49717,6.50323c-0.8926,3.56366 -5.12759,5.47062 -8.47322,4.02495c-0.61859,-0.26833 -1.22079,-0.97683 -1.36517,-1.5723c-0.07384,-0.31053 0.87128,-1.16225 1.39142,-1.1909c4.44172,-0.26381 4.55002,-3.04208 4.57298,-6.12034c0.05743,-7.54339 0.04102,-15.0913 0.50702,-22.62414c0.29043,-4.7425 2.34311,-19.54287 1.64574,-19.75391c-1.85905,-0.55475 -4.20379,-0.20652 -6.19576,0.29998c-0.87457,0.22461 -1.92633,1.70948 -1.94603,2.63808c-0.27236,12.51353 -0.19525,25.0361 -0.61038,37.54058c-0.17392,5.18269 0.11322,10.4905 -2.42513,15.44857c-1.63755,3.19736 -4.47782,4.73798 -7.88745,5.4465c-7.14088,1.48787 -7.35911,1.61149 -7.96622,8.42224c-0.61531,6.84695 -1.26508,13.70444 -1.84265,20.5574c-0.27893,3.26971 -2.30372,5.33344 -5.44426,6.34495c-9.54469,3.0873 -19.17141,2.84007 -28.75712,0.04674c-2.46944,-0.72209 -4.86177,-1.65823 -7.31644,-2.43306c-2.99287,-0.93614 -5.09969,-2.80239 -5.73141,-5.55353c-1.34712,-5.86407 -2.44483,-11.78542 -3.48675,-17.70678c-0.64485,-3.67371 -0.99434,-7.38509 -1.50464,-11.07388c-0.19526,-1.42004 -0.29207,-2.93203 1.75404,-2.98781c1.82132,-0.04824 2.69096,0.7673 2.94036,2.81746c1.08623,8.98303 2.53343,17.9329 3.88055,26.88879c0.38396,2.53858 2.19543,3.64658 4.678,4.74099c8.27468,3.65263 16.88574,4.57369 25.83809,3.56367c1.83444,-0.21104 3.87892,-0.41153 5.35402,-1.28285c1.37009,-0.81554 2.83371,-2.44965 3.00763,-3.84857c0.89753,-7.40018 1.31102,-14.84409 2.07401,-22.26537c0.21823,-2.15869 0.78596,-4.34605 1.60309,-6.3736c0.94675,-2.33356 3.111,-3.43401 5.81344,-3.6918c6.50751,-0.61957 9.72025,-3.65863 9.93849,-9.71265c0.59889,-16.31235 0.94019,-32.63224 1.45869,-48.94761c0.2691,-8.39813 0.78595,-16.78721 1.05505,-25.18081c0.13783,-4.14841 -0.08698,-4.54036 -4.65338,-4.51021c-15.59114,0.11155 -31.17242,0.39797 -46.75207,0.72359c-4.88474,0.10251 -9.758,0.60148 -14.63945,0.84871c-1.8689,0.09196 -2.78612,0.74922 -2.90426,2.58215c-0.38395,6.28917 -0.73509,12.59191 -1.41768,18.85998c-1.12725,10.34578 -2.49406,20.67347 -3.77226,31.0087c-0.52506,4.26464 -1.40783,8.52627 -1.45869,12.79694c-1.03372,9.94027 7.69383,11.34976 9.25918,-0.92257c1.19781,-8.32276 2.3349,-16.65004 3.44245,-24.98334c0.85323,-6.43842 2.07893,-12.8708 2.30044,-19.32881c0.27074,-7.75444 5.95785,-12.18339 13.568,-12.62357c4.3285,-0.25175 8.73083,0.07386 13.07246,0.44471c3.37846,0.2834 4.66652,1.71249 4.28092,5.36359c-0.52835,5.01687 -14.06188,67.57244 -14.87409,70.72759c-1.34219,5.20077 -0.85979,5.76155 4.89951,5.953c0.5989,0.0196 1.19616,0.09799 1.77866,0.15528c0.11978,0.40248 0.36098,0.7492 0.25597,0.93161c-1.69825,3.01042 -5.02748,2.50844 -7.67743,2.35015c-1.39306,-0.07688 -3.36369,-2.0155 -3.7821,-3.43553c-0.64484,-2.19186 -0.57921,-4.72895 -0.12962,-7.00371c1.64246,-8.33784 3.53434,-16.63044 5.39668,-24.93059c2.05268,-9.14885 4.23497,-18.27056 6.23678,-27.42092c1.21093,-5.50679 2.22168,-11.04977 3.23407,-16.59425c0.37411,-2.01398 -0.67438,-3.01494 -2.94856,-3.01494c-2.69753,0 -5.40161,-0.26532 -8.08107,-0.15075c-6.67324,0.27285 -10.10749,3.18529 -10.90822,9.23477c-0.93527,7.00372 -1.62113,14.03909 -2.63353,21.03376c-1.503,10.39855 -3.09788,20.78653 -4.84372,31.15342c-2.26926,9.92067 -20.23467,9.60712 -16.43779,-9.93274c1.37009,-8.78102 3.02404,-17.5334 4.12668,-26.33704c1.09443,-8.72676 1.66215,-17.50477 2.45959,-26.25715c0.1887,-2.0969 0.33309,-4.18474 0.53819,-6.27862c0.58578,-5.85336 0.32816,-6.34932 7.81853,-6.92065c14.17674,-1.07332 28.41747,-1.51199 42.64507,-1.90695c7.65445,-0.21105 15.33024,0.22612 23.00275,0.32411c2.66142,0.02864 3.80178,1.32808 3.76733,3.58929c-0.13947,7.9186 -0.34457,15.8464 -0.51686,23.76816c-0.03117,1.11553 -0.01313,2.22805 -0.01313,3.19886l0,0l0,0l0,0z" fill="#ffffff"/>
  <path fill-rule="evenodd" clip-rule="evenodd" d="m52.802,36.957c-0.667,-1.777 0.558,-2.57 1.478,-3.054c3.009,-1.583 6.924,-1.834 9.713,1.175c0.982,1.056 0.81,1.961 -0.094,2.74c-0.828,0.718 -1.631,0.529 -2.41,-0.407c-1.747,-2.104 -4.166,-2.488 -6.625,-1.269c-0.643,0.318 -1.339,0.533 -2.062,0.815z" fill="#ffffff"/>
 </g>
</svg>